<svg xmlns="http://www.w3.org/2000/svg" width="16" height="16" fill="none" viewBox="0 0 16 16"><g clip-path="url(#clip0_3814_6201)"><path fill="#3387C5" d="M9 3H2V4H9V3Z"/><path fill="#3387C5" d="M9 13H2V14H9V13Z"/><path fill="#3387C5" d="M2 12V14H3V12H2Z"/><path fill="#3387C5" d="M2 3V5H3V3H2Z"/><path fill="#3387C5" d="M14 7V9H11V7H14ZM15 6H10V10H15V6Z"/><path fill="#3387C5" d="M14 12V14H11V12H14ZM15 11H10V15H15V11Z"/><path fill="#3387C5" d="M14 2V4H11V2H14ZM15 1H10V5H15V1Z"/><path fill="#3387C5" d="M9 8H6V9H9V8Z"/><path fill="#3387C5" d="M5 8H0V9H5V8Z"/><path fill="#3387C5" d="M2 6L2 11H3V6H2Z"/></g><defs><clipPath id="clip0_3814_6201"><rect width="15" height="14" fill="#fff" transform="translate(0 1)"/></clipPath></defs></svg>