<svg xmlns="http://www.w3.org/2000/svg" width="16" height="16" fill="none" viewBox="0 0 16 16"><g clip-path="url(#clip0_3821_11026)"><path fill="#3387C5" d="M12 7H11V14H12V7Z"/><path fill="#3387C5" d="M5 6H4V14H5V6Z"/><path fill="#3387C5" d="M13 6H10V7H13V6Z"/><path fill="#3387C5" d="M10 4H9V6H10V4Z"/><path fill="#3387C5" d="M14 4H13V6H14V4Z"/><path fill="#3387C5" d="M11 2H10V4H11V2Z"/><path fill="#3387C5" d="M13 2H12V4H13V2Z"/><path fill="#3387C5" d="M7 5H2V6H7V5Z"/><path fill="#3387C5" d="M7 3H2V4H7V3Z"/><path fill="#3387C5" d="M8 4H7V5H8V4Z"/><path fill="#3387C5" d="M3 3H2V6H3V3Z"/></g><defs><clipPath id="clip0_3821_11026"><rect width="12" height="12" fill="#fff" transform="translate(2 2)"/></clipPath></defs></svg>