<svg xmlns="http://www.w3.org/2000/svg" width="16" height="16" fill="none" viewBox="0 0 16 16"><g clip-path="url(#clip0_3815_7086)"><path fill="#3387C5" d="M14 5V14H2V5H14ZM15 4H1V15H15V4Z"/><path fill="#3387C5" d="M14 5H2V6H14V5Z"/><path fill="#3387C5" d="M11 6H10V14.5H11V6Z"/><path fill="#3387C5" d="M14 8H2V9H14V8Z"/><path fill="#3387C5" d="M14 11H2V12H14V11Z"/><path fill="#ED8000" d="M6 0H5V3H6V0Z"/><path fill="#ED8000" d="M7 2L5.5 4L4 2H7Z"/><path fill="#ED8000" d="M7 6V14H5V6H7ZM8 4H4V15H8V4Z"/><path fill="#ED8000" d="M7 8H4V9H7V8Z"/><path fill="#ED8000" d="M7 11H4V12H7V11Z"/></g><defs><clipPath id="clip0_3815_7086"><rect width="14" height="15" fill="#fff" transform="translate(1)"/></clipPath></defs></svg>